<?xml version="1.0" encoding="UTF-8"?>
<svg width="77px" height="27px" viewBox="0 0 77 27" version="1.1" xmlns="http://www.w3.org/2000/svg" xmlns:xlink="http://www.w3.org/1999/xlink">
    <!-- Generator: Sketch 50.2 (55047) - http://www.bohemiancoding.com/sketch -->
    <title>belong_logo_web</title>
    <desc>Created with Sketch.</desc>
    <defs></defs>
    <g id="Symbols" stroke="none" stroke-width="1" fill="none" fill-rule="evenodd">
        <g id="belong_top_navi_save" transform="translate(0.000000, -16.000000)">
            <g id="belong_logo_web" transform="translate(0.000000, 16.000000)">
                <path d="M31.238619,0.0255761923 C32.2910552,0.0255761923 33.1446979,0.876999962 33.1446979,1.92756899 L33.1446979,18.8413025 L29.3325401,18.8413025 L29.3325401,1.92756899 C29.3325401,0.876999962 30.185793,0.0255761923 31.238619,0.0255761923 Z M46.3549377,7.02823186 C47.7283914,8.38933448 48.4153132,10.0580463 48.4153132,12.035534 C48.4153132,14.0134105 47.7283914,15.6782335 46.3549377,17.0303917 C44.9818742,18.3829389 43.2561829,19.0588235 41.1798144,19.0588235 C39.1026657,19.0588235 37.3777546,18.3829389 36.004691,17.0303917 C34.6312374,15.6782335 33.9443155,14.0134105 33.9443155,12.035534 C33.9443155,10.0580463 34.6312374,8.38933448 36.004691,7.02823186 C37.3777546,5.667907 39.1026657,4.98735569 41.1798144,4.98735569 C43.2561829,4.98735569 44.9818742,5.667907 46.3549377,7.02823186 Z M43.9138492,14.7612392 C44.6257358,14.0600769 44.9818742,13.1512492 44.9818742,12.035534 C44.9818742,10.9202076 44.6257358,10.0074911 43.9138492,9.29738438 C43.2019625,8.58766658 42.2903576,8.23261324 41.1798144,8.23261324 C40.0692712,8.23261324 39.1576662,8.58766658 38.4457796,9.29738438 C37.7338929,10.0074911 37.3777546,10.9202076 37.3777546,12.035534 C37.3777546,13.1512492 37.7338929,14.0600769 38.4457796,14.7612392 C39.1576662,15.4627904 40.0692712,15.813566 41.1798144,15.813566 C42.2903576,15.813566 43.2019625,15.4627904 43.9138492,14.7612392 Z M12.4105667,6.93263166 C13.7840573,8.28439827 14.4709977,9.94166415 14.4709977,11.9055879 C14.4709977,13.8698979 13.7840573,15.5233016 12.4105667,16.8661852 C11.0374661,18.209455 9.31250849,18.8807037 7.2353038,18.8807037 C5.15848919,18.8807037 3.43314151,18.209455 2.06004094,16.8661852 C0.686550285,15.5233016 0,13.8698979 0,11.9055879 C0,11.7213615 0.00780170778,11.5406109 0.0202844402,11.3617915 C0.00819179317,11.2764371 0,11.1899241 0,11.1014799 L0,1.88861107 C0,0.845433465 0.853896917,0 1.90751755,0 C2.9607481,0 3.81464502,0.845433465 3.81464502,1.88861107 L3.81464502,5.66815054 C4.82301575,5.16065873 5.96284526,4.90575417 7.2353038,4.90575417 C9.31250849,4.90575417 11.0374661,5.58163748 12.4105667,6.93263166 Z M9.96941229,14.6125971 C10.6813181,13.9162442 11.0374661,13.0136503 11.0374661,11.9055879 C11.0374661,10.7979117 10.6813181,9.89145567 9.96941229,9.18621972 C9.25750645,8.48136998 8.3458769,8.128752 7.2353038,8.128752 C6.12473069,8.128752 5.21310114,8.48136998 4.5011953,9.18621972 C3.78928947,9.89145567 3.43314151,10.7979117 3.43314151,11.9055879 C3.43314151,13.0136503 3.78928947,13.9162442 4.5011953,14.6125971 C5.21310114,15.3093363 6.12473069,15.6577058 7.2353038,15.6577058 C8.3458769,15.6577058 9.25750645,15.3093363 9.96941229,14.6125971 Z M56.7708513,4.87523775 C58.1997043,4.87523775 59.3976354,5.38084202 60.3646448,6.39205055 C61.3312673,7.40325908 61.8143852,8.75140787 61.8143852,10.4364969 L61.8143852,18.7025838 L58.0318315,18.7025838 L58.0318315,11.0180969 C58.0318315,8.928602 57.2663469,7.88327294 55.7369249,7.88327294 C54.9803368,7.88327294 54.3204497,8.15740041 53.7572634,8.70487987 C53.1936904,9.25274707 52.9124841,10.0572937 52.9124841,11.1192953 L52.9124841,18.7025838 L49.2061307,18.7025838 C49.1639691,18.7025838 49.1299304,18.6684633 49.1299304,18.6258126 L49.1299304,6.34901215 C49.1299304,5.30213215 49.9766438,4.45299615 51.0210138,4.45299615 C52.0657707,4.45299615 52.9124841,5.30213215 52.9124841,6.34901215 L52.9124841,6.61926228 C54.0554891,5.45683775 55.3416115,4.87523775 56.7708513,4.87523775 Z M26.6359209,6.68601177 C27.934841,7.81883804 28.5846868,9.37360613 28.5846868,11.3510938 L28.5846868,13.3795256 L18.7282433,13.3795256 C18.8454855,14.1234654 19.2311506,14.7320727 19.884853,15.2049587 C20.538941,15.6782335 21.2759471,15.9150653 22.0977995,15.9150653 C22.797396,15.9150653 23.4314294,15.7882884 24.0002855,15.5382344 C24.0002855,15.5390121 24.0006712,15.5397899 24.0010568,15.5405677 C24.1904184,15.457346 24.3990632,15.4106796 24.6188923,15.4106796 C25.4762259,15.4106796 26.1711945,16.111453 26.1711945,16.9759476 C26.1711945,17.6541656 25.7427205,18.2297176 25.1441682,18.4471051 C24.2062307,18.8534915 23.1954024,19.0588235 22.1101407,19.0588235 C20.0568596,19.0588235 18.3595474,18.4210497 17.0185898,17.1443355 C15.6772465,15.868399 15.0069606,14.1572985 15.0069606,12.0102564 C15.0069606,9.86399196 15.6899735,8.15639149 17.056385,6.8890105 C18.4224109,5.62124063 20.0356481,4.98735569 21.8964823,4.98735569 C23.7569308,4.98735569 25.3370008,5.55396327 26.6359209,6.68601177 Z M18.8289019,10.6666536 L24.7627454,10.6666536 C24.6786704,9.85543646 24.3770803,9.23010702 23.8575894,8.79027643 C23.3377128,8.35083472 22.7048364,8.13111387 21.9593457,8.13111387 C21.2134693,8.13111387 20.5300707,8.35939023 19.9103069,8.81594294 C19.2897717,9.27210676 18.9295605,9.88926958 18.8289019,10.6666536 Z M75.0924824,4.99357787 C76.1461031,4.99357787 77,5.84523923 77,6.89523269 L77,12.2253106 C77,12.2743103 76.9964892,12.3221433 76.9929785,12.3703652 C76.9192523,14.2016316 76.2354326,15.755233 74.9399591,17.0303917 C73.5668585,18.3829389 71.8411207,19.0588235 69.7646962,19.0588235 C67.6874915,19.0588235 65.9625339,18.3829389 64.5894333,17.0303917 C63.2159427,15.6782335 62.5290023,14.0134105 62.5290023,12.035534 C62.5290023,10.0580463 63.2159427,8.38933448 64.5894333,7.02823186 C65.9625339,5.667907 67.6874915,4.98735569 69.7646962,4.98735569 C69.8454439,4.98735569 69.9242411,4.99163344 70.0042086,4.99357787 L75.0550342,4.99357787 L75.0550342,4.99435565 C75.0679071,4.99435565 75.0799997,4.99357787 75.0924824,4.99357787 Z M72.4988047,14.7612392 C73.2107105,14.0600769 73.5668585,13.1512492 73.5668585,12.035534 C73.5668585,10.9202076 73.2107105,10.0074911 72.4988047,9.29738438 C71.7868989,8.58766658 70.8752693,8.23261324 69.7646962,8.23261324 C68.6541231,8.23261324 67.7424935,8.58766658 67.0305877,9.29738438 C66.3186819,10.0074911 65.9625339,10.9202076 65.9625339,12.035534 C65.9625339,13.1512492 66.3186819,14.0600769 67.0305877,14.7612392 C67.7424935,15.4627904 68.6541231,15.813566 69.7646962,15.813566 C70.8752693,15.813566 71.7868989,15.4627904 72.4988047,14.7612392 Z" id="Combined-Shape" fill="#325E77"></path>
                <path d="M74.391923,20.6470588 C73.6912506,20.6470588 73.0353019,21.0531157 72.7402014,21.7144993 C72.5949447,22.0406175 72.406111,22.3377032 72.1737003,22.604961 C71.5506255,23.322421 70.7532426,23.681151 69.7811695,23.681151 C68.8094786,23.681151 68.0117134,23.322421 67.3886386,22.604961 C67.1566102,22.3377032 66.9677764,22.0406175 66.8221375,21.7144993 C66.527037,21.0531157 65.8710883,20.6470588 65.1704159,20.6470588 C63.7610436,20.6470588 62.9025,22.2470264 63.6276368,23.5045699 C63.9196792,24.0108485 64.2805274,24.4845153 64.7097992,24.9255702 C66.055335,26.3087885 67.7456643,27 69.7811695,27 C71.8162923,27 73.5070039,26.3087885 74.852922,24.9255702 C75.2821937,24.4845153 75.6426597,24.0108485 75.9347021,23.5045699 C76.6602212,22.2470264 75.8012953,20.6470588 74.391923,20.6470588" id="Fill-10" fill="#3EE4A9"></path>
            </g>
        </g>
    </g>
</svg>