<svg xmlns="http://www.w3.org/2000/svg" width="16" height="16" viewBox="0 0 16 16">
  <path fill="#325E77" fill-rule="evenodd" d="M1153.72139,39.4226826 L1148.8989,34.5994658 C1149.64062,33.6256069 1150.058,32.3735027 1150.058,31.0283532 C1150.058,27.6894086 1147.3685,25 1144.02945,25 C1140.69039,25 1138,27.690299 1138,31.0292436 C1138,34.3681882 1140.6895,37.0575968 1144.02856,37.0575968 C1145.37375,37.0575968 1146.57893,36.6402287 1147.59979,35.8985378 L1152.42317,40.7217546 C1152.60838,40.9069614 1152.84055,41 1153.07272,41 C1153.3049,41 1153.53619,40.9069614 1153.72228,40.7217546 C1154.09272,40.350464 1154.09272,39.7939732 1153.72141,39.4227048 L1153.72139,39.4226826 Z M1144.02945,35.2029244 C1141.71036,35.2029244 1139.85563,33.3482519 1139.85563,31.0292436 C1139.85563,28.7102353 1141.71036,26.8555628 1144.02945,26.8555628 C1146.34853,26.8555628 1148.20327,28.7102353 1148.20327,31.0292436 C1148.20327,33.3473615 1146.34766,35.2029244 1144.02945,35.2029244 Z" transform="translate(-1138 -25)"/>
</svg>
