<svg xmlns="http://www.w3.org/2000/svg" width="15" height="15" viewBox="0 0 15 15">
  <path fill="#325E77" fill-rule="evenodd" d="M241.5,40 C237.351735,40 234,36.6482653 234,32.5 C234,28.3517347 237.351735,25 241.5,25 C245.648265,25 249,28.3517347 249,32.5 C249,36.6482653 245.648265,40 241.5,40 Z M241.5,26.254949 C238.04051,26.254949 235.254949,29.0405102 235.254949,32.5 C235.254949,35.9594898 238.04051,38.7450503 241.5,38.7450503 C244.95949,38.7450503 247.745051,35.9594898 247.745051,32.5 C247.745051,29.0405102 244.95949,26.254949 241.5,26.254949 Z M244.438622,35.4386224 C244.209031,35.6682143 243.826378,35.6682143 243.596786,35.4386224 L241.484388,33.3262245 L239.387602,35.4386224 C239.15801,35.6837653 238.790908,35.6837653 238.545765,35.4691153 C238.300622,35.2395235 238.300622,34.8724214 238.515272,34.6272786 C238.530817,34.6117337 238.530817,34.6117337 238.545765,34.5967857 L240.658163,32.5 L238.545765,30.387602 C238.300622,30.1580102 238.300622,29.7909082 238.515272,29.5457653 C238.744864,29.3006224 239.111966,29.3006224 239.357109,29.5152724 L241.499966,31.6581296 L243.612364,29.5457316 C243.841956,29.3161398 244.209058,29.3005888 244.454201,29.5301867 C244.683793,29.7597786 244.699344,30.1268806 244.469746,30.3720235 L244.454201,30.3875684 L242.326344,32.4999663 L244.438742,34.6123643 C244.668334,34.8264051 244.668334,35.2090582 244.438742,35.43865 L244.438622,35.4386224 Z" transform="translate(-234 -25)"/>
</svg>
